<svg width="512" height="512" viewBox="0 0 512 512" fill="none" xmlns="http://www.w3.org/2000/svg">
<path d="M255.506 6L472.013 131V381L255.506 506L39 381V131L255.506 6Z" fill="#88C0D0"/>
<path d="M355.706 157.05L268.106 372H242.006L154.406 157.05H177.656C180.256 157.05 182.356 157.7 183.956 159C185.556 160.3 186.756 161.95 187.556 163.95L248.156 315.6C249.456 319 250.706 322.7 251.906 326.7C253.206 330.7 254.356 334.9 255.356 339.3C256.356 334.9 257.406 330.7 258.506 326.7C259.606 322.7 260.806 319 262.106 315.6L322.556 163.95C323.156 162.25 324.306 160.7 326.006 159.3C327.806 157.8 329.956 157.05 332.456 157.05H355.706Z" fill="white"/>
</svg>
