<svg width="434" height="500" viewBox="0 0 434 500" fill="none" xmlns="http://www.w3.org/2000/svg">
<path d="M217 0L433.506 125V375L217 500L0.493652 375V125L217 0Z" fill="#88C0D0"/>
<path d="M317.2 151.05L229.6 366H203.5L115.9 151.05H139.15C141.75 151.05 143.85 151.7 145.45 153C147.05 154.3 148.25 155.95 149.05 157.95L209.65 309.6C210.95 313 212.2 316.7 213.4 320.7C214.7 324.7 215.85 328.9 216.85 333.3C217.85 328.9 218.9 324.7 220 320.7C221.1 316.7 222.3 313 223.6 309.6L284.05 157.95C284.65 156.25 285.8 154.7 287.5 153.3C289.3 151.8 291.45 151.05 293.95 151.05H317.2Z" fill="white"/>
</svg>
